# Blender v3.0.1 OBJ File: 'doors.blend'
# www.blender.org
mtllib justthemacguffin.mtl
o macguffin_Cube.001
v 2.353045 0.048147 0.359775
v 2.951520 0.550328 0.359775
v 3.453701 -0.048147 0.359775
v 2.855225 -0.550328 0.359775
v 2.472739 0.148584 0.359775
v 2.592435 0.249020 0.359775
v 2.712130 0.349456 0.359775
v 2.831825 0.449892 0.359775
v 3.334005 -0.148584 0.359775
v 3.214310 -0.249020 0.359775
v 3.094615 -0.349456 0.359775
v 2.974920 -0.449892 0.359775
v 2.532587 0.198802 0.359775
v 3.034768 -0.399674 0.359775
v 2.478590 -0.101471 0.359775
v 2.604135 -0.251090 0.359775
v 2.729680 -0.400709 0.359775
v 3.328156 0.101471 0.359775
v 3.202610 0.251090 0.359775
v 3.077065 0.400709 0.359775
v 2.874079 0.399536 0.480124
v 2.943418 0.457718 0.480124
v 2.932666 -0.399536 0.480124
v 2.863327 -0.457718 0.480124
v 2.780036 -0.358455 0.480124
v 3.026709 0.358455 0.480124
v 2.884312 0.119853 0.480124
v 2.916199 0.146610 0.480124
v 2.922433 -0.119853 0.480124
v 2.890546 -0.146610 0.480124
v 2.857100 -0.106751 0.480124
v 2.949645 0.106751 0.480124
v 2.445654 0.040045 0.480124
v 2.756763 0.012827 0.480124
v 3.361090 -0.040045 0.480124
v 3.049982 -0.012827 0.480124
v 2.514993 0.098227 0.480124
v 2.574841 0.148445 0.480124
v 2.634688 0.198664 0.480124
v 2.754384 0.299100 0.480124
v 3.291752 -0.098227 0.480124
v 3.172056 -0.198664 0.480124
v 3.052361 -0.299100 0.480124
v 2.992514 -0.349318 0.480124
v 2.788650 0.039583 0.480124
v 2.804594 0.052962 0.480124
v 2.820537 0.066340 0.480124
v 2.852425 0.093097 0.480124
v 3.018095 -0.039583 0.480124
v 2.986208 -0.066340 0.480124
v 2.954320 -0.093097 0.480124
v 2.938377 -0.106475 0.480124
v 2.528946 -0.059218 0.480124
v 2.654491 -0.208836 0.480124
v 3.277799 0.059218 0.480124
v 3.152254 0.208836 0.480124
v 2.790208 -0.027032 0.480124
v 2.823654 -0.066892 0.480124
v 3.016536 0.027032 0.480124
v 2.983091 0.066892 0.480124
v 2.831825 0.449892 0.480124
v 2.951520 0.550328 0.480124
v 2.974920 -0.449892 0.480124
v 2.855225 -0.550328 0.480124
v 2.729680 -0.400709 0.480124
v 3.077065 0.400709 0.480124
v 2.842058 0.170209 0.480124
v 2.924302 0.239220 0.480124
v 2.964687 -0.170209 0.480124
v 2.882443 -0.239220 0.480124
v 2.806744 -0.149005 0.480124
v 3.000001 0.149005 0.480124
v 2.353045 0.048147 0.480124
v 2.472739 0.148584 0.480124
v 2.532587 0.198802 0.480124
v 2.592435 0.249020 0.480124
v 2.712130 0.349456 0.480124
v 3.453701 -0.048147 0.480124
v 3.334005 -0.148584 0.480124
v 3.214310 -0.249020 0.480124
v 3.094615 -0.349456 0.480124
v 3.034768 -0.399674 0.480124
v 2.664152 0.020929 0.480124
v 2.746396 0.089940 0.480124
v 2.762340 0.103318 0.480124
v 2.778283 0.116696 0.480124
v 2.810171 0.143453 0.480124
v 3.142592 -0.020929 0.480124
v 3.060349 -0.089940 0.480124
v 3.028461 -0.116696 0.480124
v 2.996574 -0.143453 0.480124
v 2.980631 -0.156831 0.480124
v 2.478590 -0.101471 0.480124
v 2.604135 -0.251090 0.480124
v 3.328156 0.101471 0.480124
v 3.202610 0.251090 0.480124
v 2.739852 -0.069286 0.480124
v 2.773298 -0.109145 0.480124
v 3.066893 0.069286 0.480124
v 3.033447 0.109145 0.480124
v 2.813924 0.203738 0.524530
v 2.929696 0.300883 0.524530
v 2.992821 -0.203738 0.524530
v 2.877048 -0.300883 0.524530
v 2.773215 -0.177139 0.524530
v 3.033530 0.177139 0.524530
v 2.507317 0.034650 0.524530
v 2.664152 0.020929 0.524530
v 2.943418 0.457718 0.524530
v 3.361090 -0.040045 0.524530
v 3.204255 -0.026324 0.524530
v 2.863327 -0.457718 0.524530
v 2.718262 0.123468 0.524530
v 2.734206 0.136847 0.524530
v 2.750149 0.150225 0.524530
v 2.782037 0.176982 0.524530
v 3.088483 -0.123468 0.524530
v 3.056596 -0.150225 0.524530
v 3.024708 -0.176982 0.524530
v 3.008765 -0.190360 0.524530
v 3.291752 -0.098227 0.524530
v 3.172056 -0.198664 0.524530
v 3.052361 -0.299100 0.524530
v 2.932666 -0.399536 0.524530
v 2.543127 0.064699 0.524530
v 2.662822 0.165135 0.524530
v 2.754384 0.299100 0.524530
v 2.874079 0.399536 0.524530
v 2.602975 0.114917 0.524530
v 2.992514 -0.349318 0.524530
v 2.706323 -0.097420 0.524530
v 2.739769 -0.137279 0.524530
v 3.100421 0.097420 0.524530
v 3.066976 0.137279 0.524530
v 2.993180 0.330321 0.524530
v 3.118725 0.180702 0.524530
v 3.277799 0.059218 0.524530
v 2.780036 -0.358455 0.524530
v 2.654491 -0.208836 0.524530
v 2.528946 -0.059218 0.524530
v 2.842058 0.170209 0.524530
v 2.924302 0.239220 0.524530
v 2.964687 -0.170209 0.524530
v 2.882443 -0.239220 0.524530
v 2.806744 -0.149005 0.524530
v 3.000001 0.149005 0.524530
v 2.602490 0.026324 0.524530
v 2.746396 0.089940 0.524530
v 2.762340 0.103318 0.524530
v 2.778283 0.116696 0.524530
v 2.810171 0.143453 0.524530
v 3.142592 -0.020929 0.524530
v 3.060349 -0.089940 0.524530
v 3.028461 -0.116696 0.524530
v 2.996574 -0.143453 0.524530
v 2.980631 -0.156831 0.524530
v 2.739852 -0.069286 0.524530
v 2.773298 -0.109145 0.524530
v 3.066893 0.069286 0.524530
v 3.033447 0.109145 0.524530
v 2.902213 0.366007 0.524530
v 2.938023 0.396055 0.524530
v 2.904532 -0.366007 0.524530
v 2.868722 -0.396055 0.524530
v 2.813565 -0.330321 0.524530
v 3.026709 0.358455 0.524530
v 2.445654 0.040045 0.524530
v 2.514993 0.098227 0.524530
v 2.574841 0.148445 0.524530
v 2.634688 0.198664 0.524530
v 2.782517 0.265571 0.524530
v 3.299428 -0.034650 0.524530
v 3.263618 -0.064699 0.524530
v 3.143923 -0.165135 0.524530
v 3.024227 -0.265571 0.524530
v 2.964380 -0.315789 0.524530
v 2.562474 -0.031084 0.524530
v 2.688020 -0.180702 0.524530
v 3.244271 0.031084 0.524530
v 3.152254 0.208836 0.524530
v 2.507317 0.034650 0.564852
v 2.602490 0.026324 0.564852
v 2.929696 0.300883 0.564852
v 2.938023 0.396055 0.564852
v 3.299428 -0.034650 0.564852
v 3.204255 -0.026324 0.564852
v 2.877048 -0.300883 0.564852
v 2.868722 -0.396055 0.564852
v 3.088483 -0.123468 0.564852
v 3.263618 -0.064699 0.564852
v 3.056596 -0.150225 0.564852
v 3.143923 -0.165135 0.564852
v 3.024708 -0.176982 0.564852
v 3.024227 -0.265571 0.564852
v 2.992821 -0.203738 0.564852
v 2.904532 -0.366007 0.564852
v 2.718262 0.123468 0.564852
v 2.543127 0.064699 0.564852
v 2.750149 0.150225 0.564852
v 2.662822 0.165135 0.564852
v 2.782037 0.176982 0.564852
v 2.782517 0.265571 0.564852
v 2.813924 0.203738 0.564852
v 2.902213 0.366007 0.564852
v 2.734206 0.136847 0.564852
v 2.602975 0.114917 0.564852
v 3.008765 -0.190360 0.564852
v 2.964380 -0.315789 0.564852
v 3.033530 0.177139 0.564852
v 2.993180 0.330321 0.564852
v 3.066976 0.137279 0.564852
v 3.118725 0.180702 0.564852
v 3.100421 0.097420 0.564852
v 3.244271 0.031084 0.564852
v 2.773215 -0.177139 0.564852
v 2.813565 -0.330321 0.564852
v 2.739769 -0.137279 0.564852
v 2.688020 -0.180702 0.564852
v 2.706323 -0.097420 0.564852
v 2.562474 -0.031084 0.564852
vt 0.801074 0.470905
vt 0.747669 0.470905
vt 0.747669 0.000000
vt 0.801074 0.000000
vt 0.000000 0.000000
vt 0.042724 0.000000
vt 0.042724 0.470905
vt 0.000000 0.470905
vt 0.854479 0.470905
vt 0.854479 0.000000
vt 0.534049 0.000000
vt 0.587454 0.000000
vt 0.587454 0.470905
vt 0.534049 0.470905
vt 0.480644 0.000000
vt 0.480644 0.470905
vt 0.427239 0.000000
vt 0.427239 0.470905
vt 0.384516 0.470905
vt 0.363154 0.470905
vt 0.363154 0.000000
vt 0.384516 0.000000
vt 0.341792 0.470905
vt 0.341792 0.000000
vt 0.299068 0.470905
vt 0.299068 0.000000
vt 0.387372 0.758774
vt 0.387372 0.801498
vt 0.213620 0.801498
vt 0.213620 0.758774
vt 0.387372 0.826248
vt 0.213620 0.826248
vt 0.387372 0.694688
vt 0.387372 0.716050
vt 0.213620 0.716050
vt 0.213620 0.694688
vt 0.391291 0.623827
vt 0.391291 0.581103
vt 0.565043 0.581103
vt 0.565043 0.623827
vt 0.927578 0.628676
vt 0.921887 0.628676
vt 0.921887 0.454924
vt 0.927578 0.454924
vt 0.391291 0.517017
vt 0.391291 0.495655
vt 0.565043 0.495655
vt 0.565043 0.517017
vt 0.391291 0.538379
vt 0.565043 0.538379
vt 0.367133 1.000000
vt 0.352906 1.000000
vt 0.352906 0.826248
vt 0.367133 0.826248
vt 0.944651 0.628676
vt 0.933269 0.628676
vt 0.933269 0.454924
vt 0.944651 0.454924
vt 0.338679 1.000000
vt 0.338679 0.826248
vt 0.956033 0.628676
vt 0.956033 0.454924
vt 0.897952 0.632595
vt 0.903643 0.632595
vt 0.903643 0.806347
vt 0.897952 0.806347
vt 0.391291 0.470905
vt 0.565043 0.470905
vt 0.306477 1.000000
vt 0.306477 0.826248
vt 0.985389 0.628676
vt 0.985389 0.454924
vt 0.245821 0.826248
vt 0.260049 0.826248
vt 0.260049 1.000000
vt 0.245821 1.000000
vt 0.920715 0.632595
vt 0.932097 0.632595
vt 0.932097 0.806347
vt 0.920715 0.806347
vt 0.561124 0.737412
vt 0.561124 0.790817
vt 0.387372 0.790817
vt 0.387372 0.737412
vt 0.427239 0.470905
vt 0.427239 0.000000
vt 0.170896 0.000000
vt 0.213620 0.000000
vt 0.213620 0.470905
vt 0.170896 0.470905
vt 0.694264 0.470905
vt 0.694264 0.000000
vt 0.640859 0.000000
vt 0.640859 0.470905
vt 0.128172 0.000000
vt 0.149534 0.000000
vt 0.149534 0.470905
vt 0.128172 0.470905
vt 0.640859 0.470905
vt 0.640859 0.000000
vt 0.085448 0.000000
vt 0.085448 0.470905
vt 0.256344 0.470905
vt 0.213620 0.470905
vt 0.213620 0.000000
vt 0.256344 0.000000
vt 0.017974 0.641801
vt 0.017974 0.666551
vt 0.000000 0.684525
vt 0.000000 0.641801
vt 0.195646 0.513629
vt 0.195646 0.488879
vt 0.213620 0.470905
vt 0.213620 0.513629
vt 0.160215 0.488879
vt 0.160215 0.470905
vt 0.053405 0.666551
vt 0.053405 0.684525
vt 0.092858 0.935153
vt 0.063502 0.935153
vt 0.063502 0.917179
vt 0.074883 0.917179
vt 0.000000 0.842296
vt 0.029356 0.842296
vt 0.029356 0.860270
vt 0.017974 0.860270
vt 0.000000 0.874497
vt 0.017974 0.874497
vt 0.092858 0.902952
vt 0.074883 0.902952
vt 0.017974 0.488879
vt 0.017974 0.513629
vt 0.000000 0.513629
vt 0.000000 0.470905
vt 0.017974 0.534991
vt 0.017974 0.556353
vt 0.000000 0.556353
vt 0.000000 0.534991
vt 0.017974 0.599077
vt 0.000000 0.599077
vt 0.195646 0.666551
vt 0.195646 0.641801
vt 0.213620 0.641801
vt 0.213620 0.684525
vt 0.195646 0.599077
vt 0.213620 0.599077
vt 0.195646 0.556353
vt 0.213620 0.556353
vt 0.195646 0.534991
vt 0.213620 0.534991
vt 0.029356 0.935153
vt 0.000000 0.935153
vt 0.017974 0.917179
vt 0.029356 0.917179
vt 0.040738 0.935153
vt 0.035047 0.935153
vt 0.035047 0.917179
vt 0.040738 0.917179
vt 0.052120 0.935153
vt 0.052120 0.917179
vt 0.063502 0.842296
vt 0.092858 0.842296
vt 0.074883 0.860270
vt 0.063502 0.860270
vt 0.052120 0.842296
vt 0.052120 0.860270
vt 0.040738 0.842296
vt 0.040738 0.860270
vt 0.035047 0.842296
vt 0.035047 0.860270
vt 0.053405 0.488879
vt 0.053405 0.470905
vt 0.106810 0.488879
vt 0.106810 0.470905
vt 0.160215 0.666551
vt 0.160215 0.684525
vt 0.106810 0.666551
vt 0.106810 0.684525
vt 0.000000 0.902952
vt 0.017974 0.902952
vt 0.000000 0.888724
vt 0.017974 0.888724
vt 0.092858 0.874497
vt 0.074883 0.874497
vt 0.092858 0.888724
vt 0.074883 0.888724
vt 0.898648 0.157771
vt 0.854479 0.157771
vt 0.854479 0.000000
vt 0.898648 0.000000
vt 0.573906 0.648576
vt 0.616630 0.648576
vt 0.616630 0.806347
vt 0.573906 0.806347
vt 0.756183 0.964118
vt 0.714860 0.964118
vt 0.714860 0.806347
vt 0.756183 0.806347
vt 0.895740 0.806347
vt 0.901431 0.806347
vt 0.901431 0.964118
vt 0.895740 0.964118
vt 0.659354 0.648576
vt 0.659354 0.806347
vt 0.076868 0.842296
vt 0.023463 0.842296
vt 0.023463 0.684525
vt 0.076868 0.684525
vt 0.790329 0.964118
vt 0.784638 0.964118
vt 0.784638 0.806347
vt 0.790329 0.806347
vt 0.680716 0.648576
vt 0.680716 0.806347
vt 0.130273 0.842296
vt 0.130273 0.684525
vt 0.907122 0.806347
vt 0.907122 0.964118
vt 0.702078 0.648576
vt 0.714860 0.648576
vt 0.714860 0.806347
vt 0.702078 0.806347
vt 0.153736 0.842296
vt 0.153736 0.684525
vt 0.884358 0.806347
vt 0.884358 0.964118
vt 0.000000 0.842296
vt 0.000000 0.684525
vt 0.815663 0.470905
vt 0.869068 0.470905
vt 0.869068 0.628676
vt 0.815663 0.628676
vt 0.872976 0.806347
vt 0.872976 0.964118
vt 0.892531 0.470905
vt 0.892531 0.628676
vt 0.762258 0.470905
vt 0.762258 0.628676
vt 0.831653 0.806347
vt 0.831653 0.964118
vt 0.868596 0.806347
vt 0.855814 0.806347
vt 0.855814 0.648576
vt 0.868596 0.648576
vt 0.391291 0.648576
vt 0.565043 0.648577
vt 0.387372 0.648576
vt 0.387372 0.673326
vt 0.213620 0.673326
vt 0.213620 0.648576
vt 0.961453 0.632595
vt 0.961453 0.806347
vt 0.565043 0.648576
vt 0.565043 0.613146
vt 0.738795 0.613146
vt 0.738795 0.648576
vt 0.565043 0.506336
vt 0.565043 0.470905
vt 0.738795 0.470905
vt 0.738795 0.506336
vt 0.892531 0.628676
vt 0.892531 0.454924
vt 0.565043 0.559741
vt 0.738795 0.559741
vt 0.213620 0.826248
vt 0.213620 1.000000
vt 0.561124 0.826248
vt 0.387372 0.826248
vt 0.868596 0.632595
vt 0.868596 0.806347
vt 0.399335 1.000000
vt 0.399335 0.826248
vt 0.561124 0.648577
vt 0.561124 0.684007
vt 0.387372 0.684007
vt 0.387372 0.648577
vt 0.909334 0.632595
vt 0.909334 0.806347
vt 0.274276 0.826248
vt 0.306477 0.826248
vt 0.306477 1.000000
vt 0.274276 1.000000
vt 0.399335 0.943041
vt 0.399335 0.901717
vt 0.411303 0.901717
vt 0.411303 0.931073
vt 0.516128 0.826248
vt 0.516128 0.867572
vt 0.504160 0.867572
vt 0.504160 0.838216
vt 0.471959 0.826248
vt 0.471959 0.838216
vt 0.443504 0.943041
vt 0.443504 0.931073
vt 0.399335 0.867572
vt 0.399335 0.826248
vt 0.411303 0.838216
vt 0.411303 0.867572
vt 0.399335 0.878954
vt 0.399335 0.873263
vt 0.411303 0.873263
vt 0.411303 0.878954
vt 0.399335 0.890335
vt 0.411303 0.890335
vt 0.516128 0.901717
vt 0.516128 0.943041
vt 0.504160 0.931073
vt 0.504160 0.901717
vt 0.516128 0.890335
vt 0.504160 0.890335
vt 0.516128 0.878954
vt 0.504160 0.878954
vt 0.516128 0.873263
vt 0.504160 0.873263
vt 0.443504 0.826248
vt 0.443504 0.838216
vt 0.457731 0.826248
vt 0.457731 0.838216
vt 0.471959 0.943041
vt 0.471959 0.931073
vt 0.457731 0.943041
vt 0.457731 0.931073
vt 0.366541 0.636609
vt 0.379324 0.636609
vt 0.391291 0.648576
vt 0.366541 0.648576
vt 0.238370 0.482873
vt 0.225587 0.482873
vt 0.213620 0.470905
vt 0.238370 0.470905
vt 0.225587 0.506336
vt 0.213620 0.506336
vt 0.379324 0.613146
vt 0.391291 0.613146
vt 0.225588 0.636609
vt 0.238370 0.636609
vt 0.238370 0.648577
vt 0.213620 0.648576
vt 0.259732 0.636609
vt 0.281094 0.636609
vt 0.281094 0.648576
vt 0.259732 0.648577
vt 0.323817 0.636609
vt 0.323817 0.648576
vt 0.379323 0.482873
vt 0.366541 0.482873
vt 0.366541 0.470905
vt 0.391291 0.470905
vt 0.323817 0.482873
vt 0.323817 0.470905
vt 0.281094 0.482873
vt 0.281094 0.470905
vt 0.259732 0.482873
vt 0.259732 0.470905
vt 0.225588 0.613146
vt 0.213620 0.613146
vt 0.225588 0.559741
vt 0.213620 0.559741
vt 0.379323 0.506336
vt 0.391291 0.506336
vt 0.379323 0.559741
vt 0.391291 0.559741
vt 0.579595 0.900288
vt 0.579595 0.941612
vt 0.561124 0.960083
vt 0.561124 0.947301
vt 0.696388 0.866142
vt 0.696388 0.824819
vt 0.714860 0.806347
vt 0.714860 0.819129
vt 0.623764 0.824819
vt 0.579595 0.824819
vt 0.561124 0.806347
vt 0.584587 0.806347
vt 0.652219 0.941612
vt 0.696388 0.941612
vt 0.714860 0.960083
vt 0.691397 0.960083
vt 0.696388 0.900288
vt 0.714860 0.947301
vt 0.696388 0.888906
vt 0.714860 0.904577
vt 0.696388 0.877524
vt 0.714860 0.861853
vt 0.696388 0.871833
vt 0.714860 0.840491
vt 0.579595 0.866142
vt 0.561124 0.819129
vt 0.579595 0.871833
vt 0.579595 0.877524
vt 0.561124 0.861853
vt 0.561124 0.840491
vt 0.579595 0.888906
vt 0.561124 0.904577
vt 0.623764 0.941612
vt 0.584587 0.960083
vt 0.637992 0.941612
vt 0.637992 0.960083
vt 0.652219 0.824819
vt 0.691397 0.806347
vt 0.637992 0.824819
vt 0.637992 0.806347
vt 0.948446 0.806347
vt 0.948446 0.964118
vt 0.727642 0.806347
vt 0.714860 0.806347
vt 0.714860 0.648576
vt 0.727642 0.648576
vt 0.912875 0.157771
vt 0.912875 0.000000
vt 0.971272 0.157771
vt 0.927103 0.157771
vt 0.927103 0.000000
vt 0.971272 0.000000
vt 0.770366 0.806347
vt 0.770366 0.648576
vt 0.854479 0.157771
vt 0.898648 0.157771
vt 0.898648 0.315541
vt 0.854479 0.315541
vt 0.813090 0.806347
vt 0.813090 0.648576
vt 0.927103 0.157771
vt 0.971272 0.157771
vt 0.971272 0.315541
vt 0.927103 0.315541
vt 0.831653 0.964118
vt 0.831653 0.806347
vt 0.834452 0.806347
vt 0.834452 0.648576
vt 0.912875 0.157771
vt 0.912875 0.315541
vt 0.778947 0.964118
vt 0.778947 0.806347
vt 0.767565 0.964118
vt 0.767565 0.806347
vt 0.561124 0.648576
vt 0.561124 0.806347
vt 0.738795 0.470905
vt 0.738795 0.628676
vn 0.7660 0.6428 0.0000
vn -0.6428 0.7660 0.0000
vn -0.7660 -0.6428 0.0000
vn 0.6428 -0.7660 0.0000
vn 0.0000 0.0000 1.0000
usemtl None
s off
f 18/1/1 19/2/1 96/3/1 95/4/1
f 2/5/2 8/6/2 61/7/2 62/8/2
f 3/9/1 18/1/1 95/4/1 78/10/1
f 16/11/3 17/12/3 65/13/3 94/14/3
f 15/15/3 16/11/3 94/14/3 93/16/3
f 1/17/3 15/15/3 93/16/3 73/18/3
f 12/19/4 14/20/4 82/21/4 63/22/4
f 14/20/4 11/23/4 81/24/4 82/21/4
f 11/23/4 10/25/4 80/26/4 81/24/4
f 42/27/4 41/28/4 121/29/4 122/30/4
f 41/28/4 35/31/4 110/32/4 121/29/4
f 44/33/4 43/34/4 123/35/4 130/36/4
f 21/37/2 40/38/2 127/39/2 128/40/2
f 92/41/2 69/42/2 143/43/2 156/44/2
f 38/45/2 37/46/2 168/47/2 169/48/2
f 40/38/2 39/49/2 170/50/2 127/39/2
f 72/51/3 100/52/3 160/53/3 146/54/3
f 90/55/2 91/56/2 155/57/2 154/58/2
f 91/56/2 92/41/2 156/44/2 155/57/2
f 39/49/2 38/45/2 169/48/2 170/50/2
f 100/52/3 99/59/3 159/60/3 160/53/3
f 89/61/2 90/55/2 154/58/2 153/62/2
f 84/63/4 85/64/4 149/65/4 148/66/4
f 37/46/2 33/67/2 167/68/2 168/47/2
f 99/59/3 88/69/3 152/70/3 159/60/3
f 88/71/2 89/61/2 153/62/2 152/72/2
f 71/73/1 98/74/1 158/75/1 145/76/1
f 87/77/4 67/78/4 141/79/4 151/80/4
f 56/81/1 26/82/1 166/83/1 180/84/1
f 4/85/4 12/19/4 63/22/4 64/86/4
f 5/87/2 1/88/2 73/89/2 74/90/2
f 19/2/1 20/91/1 66/92/1 96/3/1
f 17/12/3 4/93/3 64/94/3 65/13/3
f 6/95/2 13/96/2 75/97/2 76/98/2
f 20/91/1 2/99/1 62/100/1 66/92/1
f 7/101/2 6/95/2 76/98/2 77/102/2
f 8/6/2 7/101/2 77/102/2 61/7/2
f 9/103/4 3/104/4 78/105/4 79/106/4
f 10/25/4 9/103/4 79/106/4 80/26/4
f 13/96/2 5/87/2 74/90/2 75/97/2
f 21/107/5 22/108/5 62/109/5 61/110/5
f 23/111/5 24/112/5 64/113/5 63/114/5
f 24/112/5 25/115/5 65/116/5 64/113/5
f 22/108/5 26/117/5 66/118/5 62/109/5
f 68/119/5 67/120/5 27/121/5 28/122/5
f 70/123/5 69/124/5 29/125/5 30/126/5
f 71/127/5 70/123/5 30/126/5 31/128/5
f 72/129/5 68/119/5 28/122/5 32/130/5
f 33/131/5 37/132/5 74/133/5 73/134/5
f 38/135/5 39/136/5 76/137/5 75/138/5
f 39/136/5 40/139/5 77/140/5 76/137/5
f 40/139/5 21/107/5 61/110/5 77/140/5
f 35/141/5 41/142/5 79/143/5 78/144/5
f 41/142/5 42/145/5 80/146/5 79/143/5
f 42/145/5 43/147/5 81/148/5 80/146/5
f 44/149/5 23/111/5 63/114/5 82/150/5
f 84/151/5 83/152/5 34/153/5 45/154/5
f 86/155/5 85/156/5 46/157/5 47/158/5
f 87/159/5 86/155/5 47/158/5 48/160/5
f 67/120/5 87/159/5 48/160/5 27/121/5
f 89/161/5 88/162/5 36/163/5 49/164/5
f 90/165/5 89/161/5 49/164/5 50/166/5
f 91/167/5 90/165/5 50/166/5 51/168/5
f 69/124/5 92/169/5 52/170/5 29/125/5
f 37/132/5 38/135/5 75/138/5 74/133/5
f 43/147/5 44/149/5 82/150/5 81/148/5
f 85/156/5 84/151/5 45/154/5 46/157/5
f 92/169/5 91/167/5 51/168/5 52/170/5
f 53/171/5 33/131/5 73/134/5 93/172/5
f 54/173/5 53/171/5 93/172/5 94/174/5
f 25/115/5 54/173/5 94/174/5 65/116/5
f 55/175/5 35/141/5 78/144/5 95/176/5
f 56/177/5 55/175/5 95/176/5 96/178/5
f 26/117/5 56/177/5 96/178/5 66/118/5
f 83/152/5 97/179/5 57/180/5 34/153/5
f 97/179/5 98/181/5 58/182/5 57/180/5
f 98/181/5 71/127/5 31/128/5 58/182/5
f 88/162/5 99/183/5 59/184/5 36/163/5
f 99/183/5 100/185/5 60/186/5 59/184/5
f 100/185/5 72/129/5 32/130/5 60/186/5
f 131/187/1 147/188/1 182/189/1 219/190/1
f 161/191/2 171/192/2 202/193/2 204/194/2
f 101/195/4 102/196/4 183/197/4 203/198/4
f 119/199/2 120/200/2 207/201/2 193/202/2
f 171/192/2 126/203/2 200/204/2 202/193/2
f 136/205/1 135/206/1 210/207/1 212/208/1
f 113/209/4 114/210/4 205/211/4 197/212/4
f 126/203/2 129/213/2 206/214/2 200/204/2
f 179/215/1 136/205/1 212/208/1 214/216/1
f 120/200/2 103/217/2 195/218/2 207/201/2
f 125/219/2 107/220/2 181/221/2 198/222/2
f 172/223/1 179/215/1 214/216/1 185/224/1
f 118/225/2 119/199/2 193/202/2 191/226/2
f 135/206/1 162/227/1 184/228/1 210/207/1
f 178/229/3 165/230/3 216/231/3 218/232/3
f 117/233/2 118/225/2 191/226/2 189/234/2
f 165/230/3 164/235/3 188/236/3 216/231/3
f 177/237/3 178/229/3 218/232/3 220/238/3
f 111/239/2 117/233/2 189/234/2 186/240/2
f 164/241/4 163/242/4 196/243/4 188/244/4
f 22/245/2 21/37/2 128/40/2 109/246/2
f 43/34/4 42/27/4 122/30/4 123/35/4
f 24/247/4 23/248/4 124/249/4 112/250/4
f 67/78/4 68/251/4 142/252/4 141/79/4
f 33/253/3 53/254/3 140/255/3 167/256/3
f 23/248/4 44/33/4 130/36/4 124/249/4
f 25/257/3 24/258/3 112/259/3 138/260/3
f 69/42/2 70/261/2 144/262/2 143/43/2
f 53/254/3 54/263/3 139/264/3 140/255/3
f 70/265/1 71/73/1 145/76/1 144/266/1
f 26/82/1 22/267/1 109/268/1 166/83/1
f 54/263/3 25/257/3 138/260/3 139/264/3
f 83/269/4 84/63/4 148/66/4 108/270/4
f 68/271/3 72/51/3 146/54/3 142/272/3
f 35/273/1 55/274/1 137/275/1 110/276/1
f 85/64/4 86/277/4 150/278/4 149/65/4
f 97/279/1 83/280/1 108/281/1 157/282/1
f 55/274/1 56/81/1 180/84/1 137/275/1
f 86/277/4 87/77/4 151/80/4 150/278/4
f 98/74/1 97/279/1 157/282/1 158/75/1
f 102/283/5 101/284/5 141/285/5 142/286/5
f 104/287/5 103/288/5 143/289/5 144/290/5
f 105/291/5 104/287/5 144/290/5 145/292/5
f 106/293/5 102/283/5 142/286/5 146/294/5
f 113/295/5 147/296/5 108/297/5 148/298/5
f 115/299/5 114/300/5 149/301/5 150/302/5
f 116/303/5 115/299/5 150/302/5 151/304/5
f 101/284/5 116/303/5 151/304/5 141/285/5
f 117/305/5 111/306/5 152/307/5 153/308/5
f 118/309/5 117/305/5 153/308/5 154/310/5
f 119/311/5 118/309/5 154/310/5 155/312/5
f 103/288/5 120/313/5 156/314/5 143/289/5
f 114/300/5 113/295/5 148/298/5 149/301/5
f 120/313/5 119/311/5 155/312/5 156/314/5
f 147/296/5 131/315/5 157/316/5 108/297/5
f 131/315/5 132/317/5 158/318/5 157/316/5
f 132/317/5 105/291/5 145/292/5 158/318/5
f 111/306/5 133/319/5 159/320/5 152/307/5
f 133/319/5 134/321/5 160/322/5 159/320/5
f 134/321/5 106/293/5 146/294/5 160/322/5
f 161/323/5 162/324/5 109/325/5 128/326/5
f 163/327/5 164/328/5 112/329/5 124/330/5
f 164/328/5 165/331/5 138/332/5 112/329/5
f 162/324/5 135/333/5 166/334/5 109/325/5
f 107/335/5 125/336/5 168/337/5 167/338/5
f 129/339/5 126/340/5 170/341/5 169/342/5
f 126/340/5 171/343/5 127/344/5 170/341/5
f 171/343/5 161/323/5 128/326/5 127/344/5
f 172/345/5 173/346/5 121/347/5 110/348/5
f 173/346/5 174/349/5 122/350/5 121/347/5
f 174/349/5 175/351/5 123/352/5 122/350/5
f 176/353/5 163/327/5 124/330/5 130/354/5
f 125/336/5 129/339/5 169/342/5 168/337/5
f 175/351/5 176/353/5 130/354/5 123/352/5
f 177/355/5 107/335/5 167/338/5 140/356/5
f 178/357/5 177/355/5 140/356/5 139/358/5
f 165/331/5 178/357/5 139/358/5 138/332/5
f 179/359/5 172/345/5 110/348/5 137/360/5
f 136/361/5 179/359/5 137/360/5 180/362/5
f 135/333/5 136/361/5 180/362/5 166/334/5
f 203/363/5 183/364/5 184/365/5 204/366/5
f 195/367/5 187/368/5 188/369/5 196/370/5
f 219/371/5 182/372/5 181/373/5 220/374/5
f 213/375/5 186/376/5 185/377/5 214/378/5
f 186/376/5 189/379/5 190/380/5 185/377/5
f 189/379/5 191/381/5 192/382/5 190/380/5
f 191/381/5 193/383/5 194/384/5 192/382/5
f 207/385/5 195/367/5 196/370/5 208/386/5
f 182/372/5 197/387/5 198/388/5 181/373/5
f 205/389/5 199/390/5 200/391/5 206/392/5
f 199/390/5 201/393/5 202/394/5 200/391/5
f 201/393/5 203/363/5 204/366/5 202/394/5
f 197/387/5 205/389/5 206/392/5 198/388/5
f 193/383/5 207/385/5 208/386/5 194/384/5
f 183/364/5 209/395/5 210/396/5 184/365/5
f 209/395/5 211/397/5 212/398/5 210/396/5
f 211/397/5 213/375/5 214/378/5 212/398/5
f 187/368/5 215/399/5 216/400/5 188/369/5
f 215/399/5 217/401/5 218/402/5 216/400/5
f 217/401/5 219/371/5 220/374/5 218/402/5
f 103/217/2 104/403/2 187/404/2 195/218/2
f 173/405/4 172/406/4 185/407/4 190/408/4
f 132/409/1 131/187/1 219/190/1 217/410/1
f 104/411/1 105/412/1 215/413/1 187/414/1
f 174/415/4 173/405/4 190/408/4 192/416/4
f 105/412/1 132/409/1 217/410/1 215/413/1
f 102/417/3 106/418/3 209/419/3 183/420/3
f 175/421/4 174/415/4 192/416/4 194/422/4
f 133/423/3 111/424/3 186/425/3 213/426/3
f 147/427/4 113/209/4 197/212/4 182/428/4
f 163/242/4 176/429/4 208/430/4 196/243/4
f 134/431/3 133/423/3 213/426/3 211/432/3
f 114/210/4 115/433/4 199/434/4 205/211/4
f 129/213/2 125/219/2 198/222/2 206/214/2
f 106/418/3 134/431/3 211/432/3 209/419/3
f 115/433/4 116/435/4 201/436/4 199/434/4
f 176/429/4 175/421/4 194/422/4 208/430/4
f 162/437/2 161/191/2 204/194/2 184/438/2
f 116/435/4 101/195/4 203/198/4 201/436/4
f 107/439/3 177/237/3 220/238/3 181/440/3
